<svg version="1.1" id="Layer_1" xmlns="http://www.w3.org/2000/svg" xmlns:xlink="http://www.w3.org/1999/xlink" x="0px" y="0px"
	 width="100%" viewBox="0 0 1024 640" enable-background="new 0 0 1024 640" xml:space="preserve">
<path fill="#000000" opacity="1.000000" stroke="none" 
	d="
M749.502319,234.980835 
	C741.079163,233.930893 738.530640,228.909515 742.980957,222.294525 
	C745.344971,218.780609 742.577454,217.667587 741.008484,215.781311 
	C738.421204,216.269516 737.310364,218.297867 735.853882,219.790344 
	C716.888672,239.224930 698.648987,259.385101 678.304382,277.438812 
	C671.951416,283.076416 665.496948,288.604553 658.960693,294.028168 
	C656.297302,296.238190 655.190796,298.301849 655.897766,302.110291 
	C659.963013,324.011292 663.715454,345.972015 667.374756,367.945648 
	C668.655396,375.635956 665.286804,382.329468 661.326355,388.505859 
	C658.855286,392.359406 655.879883,391.844055 653.922668,387.576416 
	C644.749573,367.574097 633.885864,348.430756 624.141235,328.719879 
	C620.866638,322.095947 620.459534,321.842255 614.449585,326.504272 
	C609.125305,330.634399 602.127380,332.409698 598.108398,338.394623 
	C597.041992,339.982666 595.039062,340.730621 593.359131,338.993073 
	C591.516357,337.087097 592.589539,335.214600 594.095886,333.745544 
	C600.214294,327.778778 601.823853,319.193542 606.565674,312.432983 
	C606.900085,311.956177 606.816406,311.186188 606.905518,310.676422 
	C605.836060,309.188873 604.333130,308.837189 602.958313,308.301758 
	C582.318054,300.263031 562.181946,290.976959 541.352722,283.402771 
	C539.243896,282.635895 536.425659,282.284119 536.278320,279.324127 
	C536.136047,276.465973 538.379639,274.944977 540.557434,273.634430 
	C548.337463,268.952545 556.401184,267.022400 565.778320,268.167542 
	C585.424011,270.566650 605.202637,271.873444 624.922852,273.669952 
	C628.160950,273.964935 630.488525,273.176331 632.485657,270.214630 
	C651.078369,242.641205 673.257996,217.970474 695.225220,193.132202 
	C698.303162,189.652054 701.326111,186.123383 704.549194,182.416260 
	C701.914001,179.502167 699.709167,177.541092 696.358887,181.297318 
	C694.239319,183.673706 691.352478,184.025909 688.633850,182.253555 
	C685.751465,180.374451 683.005859,177.904175 684.462097,174.093597 
	C685.781799,170.640366 684.162720,169.432388 681.503296,168.664886 
	C677.559387,167.526703 673.915161,164.782074 669.470276,168.651947 
	C667.053955,170.755661 664.673340,168.311218 663.719666,165.313522 
	C662.335999,160.963760 658.330933,159.586929 654.650574,162.098358 
	C650.789734,164.732925 648.515381,163.922211 646.895569,159.334045 
	C645.442505,155.218109 640.336426,153.373352 636.577698,155.606339 
	C632.559692,157.993347 630.256104,157.470474 629.025757,153.215164 
	C628.352539,150.886490 627.105957,149.928879 625.139221,149.257446 
	C602.605225,141.564514 580.159912,133.601929 557.277710,126.969551 
	C556.638794,126.784355 555.995117,126.589233 555.339783,126.492043 
	C552.787598,126.113571 549.473206,126.860527 548.483215,123.635040 
	C547.452698,120.277199 550.772522,118.865257 552.568909,116.816177 
	C562.318115,105.695633 575.209351,108.357384 587.497864,109.083961 
	C602.779480,109.987518 618.033020,111.376602 633.292786,112.627693 
	C636.020813,112.851357 637.988708,112.025230 639.832458,109.931030 
	C644.675354,104.430450 649.671875,99.059822 654.739380,93.763908 
	C659.734985,88.543068 664.221985,88.311920 669.026855,92.775429 
	C673.591064,97.015388 673.428894,101.748756 668.629333,107.156189 
	C666.767517,109.253807 664.399597,110.948334 663.191711,113.736099 
	C664.467163,115.761223 666.586792,115.460167 668.473389,115.632973 
	C675.268555,116.255417 682.090576,116.643547 688.858643,117.476799 
	C692.216187,117.890160 694.524963,116.969589 696.723816,114.454918 
	C701.657715,108.812378 706.845398,103.392303 711.904358,97.858475 
	C716.643127,92.674957 721.310242,92.318138 726.150574,96.816452 
	C730.633911,100.982979 730.586487,105.844658 726.077393,110.789642 
	C723.642822,113.459457 721.286804,116.200912 718.669495,119.165855 
	C722.326782,121.478065 725.954712,120.612312 729.296814,121.050514 
	C737.211792,122.088333 745.188171,122.654709 753.106567,123.670425 
	C757.342346,124.213768 760.289734,122.723511 763.183533,119.691544 
	C779.751282,102.332787 796.950012,85.601601 814.301819,69.030304 
	C819.604187,63.966385 825.245544,59.295578 831.058655,54.809422 
	C837.918518,49.515472 845.825684,47.264984 854.182922,46.235703 
	C860.268005,45.486275 863.162476,48.237240 863.361389,54.338131 
	C863.675598,63.974747 861.119385,72.659416 855.722473,80.716423 
	C843.628601,98.771355 828.960144,114.750816 815.240112,131.492676 
	C809.117737,138.963455 802.689575,146.184418 796.360779,153.484589 
	C795.117004,154.919312 794.021179,156.356552 794.389343,158.375214 
	C796.653137,170.786194 798.937805,183.193359 801.463501,196.952209 
	C804.898926,193.240967 807.541260,190.377869 810.193115,187.523529 
	C814.691284,182.681778 819.388550,182.447433 824.094299,186.821838 
	C828.500916,190.918335 828.626404,195.751175 824.357239,200.409714 
	C819.292175,205.936783 814.239624,211.478653 809.038635,216.876297 
	C806.764343,219.236557 805.760254,221.778473 806.343445,225.003693 
	C807.762695,232.852570 809.119263,240.712845 810.561340,248.557465 
	C810.700867,249.316635 811.261108,249.998489 811.953491,251.360260 
	C814.632507,248.634811 817.004028,246.169205 819.433472,243.761978 
	C823.985413,239.251602 828.387329,239.163528 832.978088,243.440903 
	C837.272034,247.441666 837.571533,251.927994 833.495300,256.598694 
	C828.457764,262.370850 823.272522,268.019531 818.000793,273.579071 
	C815.988159,275.701569 815.435486,277.652130 815.935181,280.689331 
	C819.415955,301.847473 823.521118,322.925720 825.310791,344.326355 
	C826.056213,353.240204 819.929199,359.029053 814.645264,364.856323 
	C812.139709,367.619598 810.144470,365.125702 809.314392,362.435608 
	C801.779358,338.014008 790.068665,315.313965 780.271118,291.826050 
	C779.363281,289.649658 778.541931,288.013611 775.411377,287.851349 
	C771.682129,287.658081 770.728760,284.398926 772.714905,280.767731 
	C774.962036,276.659393 772.453003,271.461304 767.789307,270.562897 
	C763.841370,269.802399 762.629578,267.152100 764.623413,263.638733 
	C767.160278,259.168488 765.534729,255.483612 760.559448,254.426315 
	C756.469116,253.557083 755.575500,251.086624 757.897278,247.066040 
	C759.307068,244.624725 756.158691,234.885147 753.617859,233.924011 
	C752.172913,233.377441 751.136292,234.637787 749.502319,234.980835 
z"/>
<path fill="#000000" opacity="1.000000" stroke="none" 
	d="
M280.881775,491.779907 
	C282.791565,491.691986 284.350739,491.292389 285.764496,491.588104 
	C289.407684,492.350189 291.031586,490.733704 291.637054,487.377655 
	C291.809937,486.419495 292.256897,485.479858 292.729492,484.614380 
	C293.367126,483.446716 294.097687,482.172943 295.758514,482.614075 
	C297.350067,483.036804 297.546753,484.403198 297.565857,485.790527 
	C297.585663,487.229767 296.665649,488.717896 298.002655,490.376282 
	C300.531372,490.935120 305.636627,488.588074 305.109100,493.912781 
	C304.654175,498.504944 298.287689,496.984467 297.489014,496.327698 
	C291.636139,491.514099 286.255676,496.786621 280.779419,496.318268 
	C278.893829,496.157013 275.702911,497.380951 275.706909,494.078308 
	C275.710144,491.398743 278.580261,492.017059 280.881775,491.779907 
z"/>
<path fill="#000000" opacity="1.000000" stroke="none" 
	d="
M319.076599,494.189331 
	C316.165710,494.134796 311.997803,496.738312 311.751129,492.589508 
	C311.539612,489.031586 316.054169,490.188232 318.637939,489.823059 
	C320.218475,489.599670 322.280212,489.350952 322.557404,491.692535 
	C322.806488,493.796539 320.875854,493.771484 319.076599,494.189331 
z"/>
<path fill="#000000" opacity="1.000000" stroke="none" 
	d="
M299.732178,475.768250 
	C297.284821,476.182404 296.128326,475.020325 296.426971,473.107941 
	C296.819397,470.595123 296.583984,467.561188 299.001038,465.972229 
	C300.731812,464.834381 301.747986,466.341248 301.838348,468.035614 
	C301.979828,470.688873 301.501373,473.255463 299.732178,475.768250 
z"/>
<path fill="#000000" opacity="1.000000" stroke="none" 
	d="
M277.491821,523.501099 
	C276.165131,524.837585 274.991302,525.207520 273.828888,523.943176 
	C272.871826,522.902222 273.083862,521.619385 273.993713,520.824158 
	C276.066833,519.012329 276.963409,513.671936 280.004028,515.685791 
	C283.908112,518.271362 278.759705,520.681824 277.491821,523.501099 
z"/>
<path fill="#000000" opacity="1.000000" stroke="none" 
	d="
M157.085419,592.096680 
	C159.039886,591.729065 160.716461,591.012878 162.154984,592.353699 
	C162.789642,592.945312 163.158463,594.007446 162.401138,594.549377 
	C159.654419,596.514893 156.569855,597.643738 153.132172,597.163391 
	C152.041473,597.010986 151.306656,596.015381 151.738220,594.950073 
	C152.619736,592.774048 155.024948,593.058960 157.085419,592.096680 
z"/>
<path fill="#000000" opacity="1.000000" stroke="none" 
	d="
M289.148682,505.135437 
	C288.404907,506.456085 287.872894,507.489624 287.220184,508.440308 
	C286.503235,509.484558 285.521820,510.114105 284.280853,509.301697 
	C283.123322,508.543884 283.080841,507.407257 283.592346,506.230713 
	C284.053101,505.170837 284.507996,504.101746 285.066132,503.092377 
	C285.985931,501.428864 286.627441,498.762451 289.158569,499.813507 
	C292.012848,500.998718 289.892365,503.097473 289.148682,505.135437 
z"/>
<path fill="#000000" opacity="1.000000" stroke="none" 
	d="
M356.068726,485.379547 
	C352.724274,485.887390 349.878876,488.677216 346.081940,486.003326 
	C348.727142,482.444092 352.351959,481.499420 356.004456,481.753784 
	C358.276855,481.912048 358.091034,483.832336 356.068726,485.379547 
z"/>
<path fill="#000000" opacity="1.000000" stroke="none" 
	d="
M388.480835,473.807648 
	C387.515869,474.219055 386.910706,474.529816 386.268005,474.682739 
	C384.566803,475.087402 382.380676,476.316071 381.566589,473.840668 
	C380.848145,471.656006 383.326172,471.440338 384.642273,470.635071 
	C385.344055,470.205658 386.145599,469.907104 386.937195,469.663513 
	C388.428833,469.204468 390.267578,467.613953 391.383270,469.618561 
	C392.661774,471.915741 390.311279,472.673584 388.480835,473.807648 
z"/>
<path fill="#000000" opacity="1.000000" stroke="none" 
	d="
M370.563049,480.660248 
	C369.111420,481.133087 368.022766,481.539276 366.897919,481.765350 
	C365.802094,481.985626 364.944733,481.489319 364.580414,480.409424 
	C364.198669,479.277954 364.794342,478.462952 365.727448,477.970825 
	C366.891693,477.356689 368.098022,476.785828 369.344788,476.373383 
	C371.136932,475.780518 373.522064,474.305756 374.496948,476.881470 
	C375.539917,479.636993 372.474152,479.617249 370.563049,480.660248 
z"/>
<path fill="#000000" opacity="1.000000" stroke="none" 
	d="
M259.386230,490.582947 
	C261.703003,490.798401 263.665955,490.972748 265.604950,491.292572 
	C266.896912,491.505707 268.410431,491.809387 268.304901,493.550903 
	C268.173920,495.712921 266.335205,495.511414 264.944489,495.387787 
	C263.004272,495.215393 260.985046,494.982697 259.198303,494.274506 
	C256.994080,493.400787 256.462555,491.954102 259.386230,490.582947 
z"/>
<path fill="#000000" opacity="1.000000" stroke="none" 
	d="
M174.133209,587.124390 
	C176.316315,586.442749 178.641678,585.092468 179.497437,587.788086 
	C180.385651,590.585938 177.513107,590.533630 175.831680,591.224121 
	C175.534561,591.346130 175.197235,591.398987 174.873871,591.423767 
	C172.952911,591.571411 170.214645,593.683594 169.421387,590.656372 
	C168.649124,587.709351 172.059250,588.135803 174.133209,587.124390 
z"/>
<path fill="#000000" opacity="1.000000" stroke="none" 
	d="
M208.187988,578.369202 
	C206.143356,578.974731 203.990616,580.286133 203.077133,577.969055 
	C202.124130,575.551697 204.842606,575.329468 206.249191,574.416626 
	C206.386810,574.327332 206.536606,574.226868 206.692474,574.200195 
	C208.691635,573.858398 211.050934,570.546387 212.560455,573.759216 
	C213.928818,576.671509 210.362747,577.105774 208.187988,578.369202 
z"/>
<path fill="#000000" opacity="1.000000" stroke="none" 
	d="
M223.146271,482.622192 
	C226.356567,481.321411 228.853424,482.986786 231.372391,483.962677 
	C233.141235,484.647980 233.940720,486.331116 231.810135,487.658905 
	C229.560745,489.060699 223.489258,485.703491 223.146271,482.622192 
z"/>
<path fill="#000000" opacity="1.000000" stroke="none" 
	d="
M267.726624,535.731384 
	C266.150024,537.214539 265.067871,540.014160 262.832245,537.890442 
	C260.681976,535.847656 263.352234,534.488586 264.382935,532.987061 
	C264.475342,532.852478 264.595764,532.730103 264.723999,532.628235 
	C266.260651,531.407410 267.426056,528.099731 269.727478,530.111023 
	C271.959045,532.061279 268.896790,533.738281 267.726624,535.731384 
z"/>
<path fill="#000000" opacity="1.000000" stroke="none" 
	d="
M335.516632,486.576965 
	C337.525513,486.087067 339.461273,485.481293 340.067627,487.685120 
	C340.704773,490.000946 338.555573,490.402252 337.004059,490.696503 
	C334.522217,491.167206 330.727600,492.816254 329.886627,489.993683 
	C328.809753,486.379272 333.510223,488.151459 335.516632,486.576965 
z"/>
<path fill="#000000" opacity="1.000000" stroke="none" 
	d="
M193.810730,471.160706 
	C192.100433,469.994843 189.636963,469.329346 190.826233,467.042999 
	C192.074615,464.642975 193.929016,466.429169 195.490295,467.152679 
	C195.789398,467.291290 196.106445,467.424194 196.356064,467.631104 
	C197.871246,468.886841 201.324158,469.388367 199.902527,472.017883 
	C198.193985,475.178040 196.014023,472.191803 193.810730,471.160706 
z"/>
<path fill="#000000" opacity="1.000000" stroke="none" 
	d="
M257.809692,544.906616 
	C256.331390,547.576538 254.120758,549.059387 251.959473,550.513306 
	C250.450012,551.528748 249.022812,551.136963 248.788010,549.077393 
	C248.583542,547.283752 254.766464,542.248352 256.603851,542.672974 
	C257.484802,542.876465 257.811554,543.698669 257.809692,544.906616 
z"/>
<path fill="#000000" opacity="1.000000" stroke="none" 
	d="
M195.323608,580.126892 
	C197.284683,582.475708 195.962067,583.691589 194.081421,584.400330 
	C191.851410,585.240723 189.600952,587.163208 187.132828,585.691223 
	C185.610123,584.783081 186.372269,583.270691 187.661575,582.531921 
	C189.929230,581.232361 192.207809,579.830383 195.323608,580.126892 
z"/>
<path fill="#000000" opacity="1.000000" stroke="none" 
	d="
M202.069824,352.197754 
	C200.493591,354.805450 193.850372,356.320251 192.274872,354.724915 
	C191.051422,353.486053 191.333725,352.130249 192.960236,351.625122 
	C195.933121,350.701965 199.007233,349.610413 202.069824,352.197754 
z"/>
<path fill="#000000" opacity="1.000000" stroke="none" 
	d="
M285.141296,400.814545 
	C284.263824,399.192413 283.288666,397.737274 285.213959,396.740265 
	C287.005585,395.812500 288.132477,397.210297 288.662567,398.539062 
	C289.551941,400.768463 293.354309,403.292694 290.620300,405.206818 
	C287.495819,407.394196 287.098328,402.635040 285.141296,400.814545 
z"/>
<path fill="#000000" opacity="1.000000" stroke="none" 
	d="
M245.168152,492.109924 
	C243.515701,491.666199 242.119812,491.515381 241.056183,490.840729 
	C239.664688,489.958099 239.711761,488.611603 241.083618,487.619080 
	C243.195129,486.091492 249.006042,488.515991 250.149658,491.377319 
	C248.853928,492.930206 247.140564,492.153687 245.168152,492.109924 
z"/>
<path fill="#000000" opacity="1.000000" stroke="none" 
	d="
M294.788940,420.750977 
	C294.017334,418.750366 293.346375,417.083191 292.744080,415.391571 
	C292.398743,414.421631 292.391907,413.412994 293.272797,412.703949 
	C294.166138,411.984924 295.242157,412.051025 295.877441,412.941284 
	C297.713348,415.514008 299.239441,418.410522 298.028931,421.549133 
	C297.478607,422.975983 295.809906,422.406464 294.788940,420.750977 
z"/>
<path fill="#000000" opacity="1.000000" stroke="none" 
	d="
M277.011963,389.693481 
	C276.674713,389.322540 276.538086,389.215179 276.453217,389.076263 
	C275.316498,387.215759 272.428619,386.257629 273.359711,383.354218 
	C273.625732,382.524719 274.641144,382.052429 275.422516,382.455353 
	C278.171478,383.872803 279.978180,386.239197 281.237701,388.992340 
	C281.617249,389.822052 281.019562,390.607391 280.220093,391.023438 
	C278.866455,391.727905 278.066071,390.763031 277.011963,389.693481 
z"/>
<path fill="#000000" opacity="1.000000" stroke="none" 
	d="
M236.851776,359.385681 
	C233.610474,360.599060 231.190079,358.882019 228.651505,357.852997 
	C227.721268,357.475922 227.105957,356.547394 227.474823,355.425140 
	C227.866623,354.233002 228.954361,353.990173 229.880783,354.438049 
	C232.471497,355.690552 236.979752,354.066956 236.851776,359.385681 
z"/>
<path fill="#000000" opacity="1.000000" stroke="none" 
	d="
M430.315308,450.546753 
	C429.953613,448.288269 431.500427,447.528107 432.795471,447.115997 
	C434.998291,446.415009 437.534027,442.327972 439.361053,445.824219 
	C440.876587,448.724457 436.522522,449.470795 434.541809,450.874634 
	C433.351074,451.718567 431.824432,452.226074 430.315308,450.546753 
z"/>
<path fill="#000000" opacity="1.000000" stroke="none" 
	d="
M414.195557,458.664856 
	C414.377075,456.791290 415.570129,456.113586 416.817078,455.723328 
	C418.995636,455.041504 420.751678,452.106689 423.449493,454.181885 
	C424.363159,454.884674 423.990356,456.380127 423.064087,456.692932 
	C420.193787,457.662262 418.257416,462.429199 414.195557,458.664856 
z"/>
<path fill="#000000" opacity="1.000000" stroke="none" 
	d="
M182.421417,462.555969 
	C180.580505,461.163208 179.023331,459.962402 177.547058,458.669220 
	C176.665070,457.896637 175.887070,456.933228 176.751953,455.701874 
	C177.423462,454.745819 178.491760,454.684631 179.374603,455.259552 
	C181.674637,456.757355 184.470673,457.946899 185.268524,460.819244 
	C185.705872,462.393768 184.352707,463.082581 182.421417,462.555969 
z"/>
<path fill="#000000" opacity="1.000000" stroke="none" 
	d="
M403.304901,462.335602 
	C405.134888,461.643768 406.948029,460.434967 407.774994,462.770020 
	C408.405334,464.549805 406.625763,465.242798 405.371429,466.001587 
	C405.231323,466.086304 405.080109,466.165192 404.923431,466.208008 
	C402.738708,466.804657 399.936920,469.886566 398.488342,466.963867 
	C396.936554,463.832855 401.319183,463.945801 403.304901,462.335602 
z"/>
<path fill="#000000" opacity="1.000000" stroke="none" 
	d="
M142.267578,600.484741 
	C139.553940,600.887878 137.272736,602.784302 134.873596,600.971680 
	C134.520844,600.705200 134.344131,599.561340 134.603912,599.232239 
	C136.389221,596.970581 139.313080,597.231201 141.703949,596.287781 
	C142.856033,595.833069 144.055862,596.290894 144.533951,597.591675 
	C145.167526,599.315491 144.012543,599.954590 142.267578,600.484741 
z"/>
<path fill="#000000" opacity="1.000000" stroke="none" 
	d="
M237.674988,556.451904 
	C238.938889,555.617737 239.887695,554.937012 240.903900,554.378967 
	C241.664566,553.961182 242.529282,553.893799 243.200943,554.584229 
	C244.500168,555.919678 243.846024,557.264709 242.636902,557.912354 
	C240.302536,559.162659 238.600143,562.835266 235.474564,561.091064 
	C233.361221,559.911743 235.275345,558.297302 236.573654,557.232178 
	C236.829941,557.021973 237.116333,556.848389 237.674988,556.451904 
z"/>
<path fill="#000000" opacity="1.000000" stroke="none" 
	d="
M212.325912,476.535309 
	C213.987473,477.686279 216.843765,477.841064 215.677689,480.321930 
	C214.609665,482.594177 212.554611,481.207092 210.924210,480.498108 
	C210.166992,480.168793 209.405258,479.820557 208.714523,479.374237 
	C207.524124,478.604950 205.582275,478.045258 206.385925,476.162262 
	C207.361038,473.877533 209.147354,475.271637 210.630447,475.750458 
	C211.099152,475.901733 211.533157,476.160461 212.325912,476.535309 
z"/>
<path fill="#000000" opacity="1.000000" stroke="none" 
	d="
M302.530151,457.100952 
	C300.032379,458.740173 299.317291,457.411530 299.178040,455.469116 
	C299.061310,453.841003 299.110291,452.191406 299.216827,450.559906 
	C299.302673,449.245331 299.470825,447.786987 301.249481,447.708710 
	C303.131500,447.625885 303.308044,449.103241 303.268616,450.425140 
	C303.205536,452.541016 302.937103,454.650787 302.530151,457.100952 
z"/>
<path fill="#000000" opacity="1.000000" stroke="none" 
	d="
M455.051605,438.383911 
	C453.063843,439.814850 451.306244,441.047699 449.442902,442.091888 
	C448.204895,442.785645 446.284729,442.917938 446.213776,441.296265 
	C446.054199,437.650421 449.863220,437.577942 452.004761,436.124359 
	C453.639130,435.015045 455.684052,434.958862 455.051605,438.383911 
z"/>
<path fill="#000000" opacity="1.000000" stroke="none" 
	d="
M182.588898,353.871521 
	C185.165222,355.207275 184.756866,356.806610 182.834808,357.555237 
	C180.441422,358.487396 178.210876,360.430298 175.367554,359.669739 
	C174.521469,359.443390 174.030975,358.388550 174.420593,357.623871 
	C175.710007,355.093109 178.525009,355.075653 180.750549,354.096222 
	C181.192734,353.901581 181.727158,353.916534 182.588898,353.871521 
z"/>
<path fill="#000000" opacity="1.000000" stroke="none" 
	d="
M251.219604,367.529053 
	C249.148865,366.496094 247.386047,365.604370 245.693069,364.595520 
	C244.665771,363.983307 243.818771,363.151550 244.479324,361.762024 
	C244.893707,360.890381 245.700867,360.486389 246.512711,360.852539 
	C249.167450,362.049774 252.376862,362.652374 253.651382,365.661865 
	C254.189484,366.932465 252.937363,367.670166 251.219604,367.529053 
z"/>
<path fill="#000000" opacity="1.000000" stroke="none" 
	d="
M224.799072,564.744751 
	C226.409500,563.940979 227.687759,563.596130 228.428604,565.273621 
	C229.026779,566.627991 228.120575,567.489014 227.114395,568.102905 
	C225.044418,569.365723 223.185883,571.254639 220.476639,570.877258 
	C219.996826,570.810486 219.220062,569.976562 219.257584,569.557434 
	C219.536011,566.446045 222.648041,566.384277 224.799072,564.744751 
z"/>
<path fill="#000000" opacity="1.000000" stroke="none" 
	d="
M302.290833,437.643066 
	C301.500854,440.395874 300.035370,440.771729 298.844147,438.717255 
	C297.584442,436.544678 297.768707,433.901276 297.961914,431.408966 
	C298.035767,430.455994 298.782959,430.018311 299.700928,429.982910 
	C300.649414,429.946350 301.237579,430.513519 301.610016,431.314240 
	C302.486206,433.197968 302.286865,435.219818 302.290833,437.643066 
z"/>
<path fill="#000000" opacity="1.000000" stroke="none" 
	d="
M464.953705,432.772675 
	C463.521423,433.344543 462.333649,433.730743 461.594086,432.370911 
	C460.856201,431.014252 461.732086,430.072754 462.796265,429.526276 
	C464.960541,428.414917 466.630981,426.164459 469.384460,426.446594 
	C469.819214,426.491119 470.546692,427.416656 470.495789,427.861237 
	C470.146667,430.912262 467.150665,431.176056 464.953705,432.772675 
z"/>
<path fill="#000000" opacity="1.000000" stroke="none" 
	d="
M477.583557,420.305908 
	C479.343628,419.083008 480.831512,418.039490 482.377106,417.089813 
	C483.408295,416.456238 484.548340,416.090851 485.448456,417.307343 
	C486.024658,418.086060 485.780975,418.924561 485.140625,419.534210 
	C483.219513,421.363190 481.174652,423.091736 478.487152,423.585388 
	C477.430817,423.779388 476.573334,423.043182 476.682892,421.798431 
	C476.721619,421.358276 477.108185,420.948730 477.583557,420.305908 
z"/>
<path fill="#000000" opacity="1.000000" stroke="none" 
	d="
M147.932343,415.004333 
	C147.997620,413.023773 146.357376,410.628357 149.114502,410.134644 
	C151.407089,409.724091 151.109039,412.264008 151.796417,413.617920 
	C151.870316,413.763458 151.940033,413.925079 151.954895,414.084564 
	C152.134201,416.007843 154.564590,418.673920 151.599808,419.628754 
	C148.834259,420.519440 148.777130,417.229675 147.932343,415.004333 
z"/>
<path fill="#000000" opacity="1.000000" stroke="none" 
	d="
M267.918091,377.485962 
	C263.876923,378.487030 262.451813,374.945892 259.946136,373.356323 
	C259.230682,372.902435 259.229004,371.848877 259.741699,371.096710 
	C260.247223,370.355011 261.132202,369.944244 261.899353,370.471344 
	C264.475433,372.241425 268.265442,372.940948 267.918091,377.485962 
z"/>
<path fill="#000000" opacity="1.000000" stroke="none" 
	d="
M554.669556,370.654480 
	C553.232788,371.554657 551.960876,372.402924 550.938660,370.879242 
	C550.130249,369.674133 551.043884,368.726929 551.949219,367.932831 
	C552.073120,367.824127 552.188782,367.690613 552.333740,367.623596 
	C554.527161,366.609192 556.594543,362.375366 558.703369,364.875183 
	C561.159424,367.786560 556.267639,368.508057 554.669556,370.654480 
z"/>
<path fill="#000000" opacity="1.000000" stroke="none" 
	d="
M167.395386,362.203125 
	C168.203705,367.026764 163.793152,367.362640 161.478973,369.479309 
	C161.250916,369.687897 160.217484,369.310333 159.788971,368.938446 
	C159.092499,368.334076 159.069107,367.348938 159.713104,366.751099 
	C161.893845,364.726715 163.412857,361.612854 167.395386,362.203125 
z"/>
<path fill="#000000" opacity="1.000000" stroke="none" 
	d="
M155.000107,431.668823 
	C154.103882,429.901184 152.800873,428.183716 155.070999,427.197510 
	C156.871262,426.415375 157.495255,428.367401 158.367264,429.489075 
	C158.468002,429.618683 158.570099,429.759064 158.624252,429.911285 
	C159.326248,431.884583 162.504013,434.171906 159.751099,435.810272 
	C156.813477,437.558594 156.650742,433.445251 155.000107,431.668823 
z"/>
<path fill="#000000" opacity="1.000000" stroke="none" 
	d="
M217.035461,351.597321 
	C218.821823,351.847687 220.197647,352.264130 219.900772,354.006439 
	C219.654449,355.452148 218.273315,355.378723 217.114700,355.406067 
	C216.950424,355.409943 216.783447,355.421326 216.621902,355.399048 
	C214.259445,355.072693 211.562912,355.834900 209.824509,353.495605 
	C209.562790,353.143402 209.722443,352.061371 210.074142,351.738434 
	C212.161057,349.822418 214.436172,351.581207 217.035461,351.597321 
z"/>
<path fill="#000000" opacity="1.000000" stroke="none" 
	d="
M170.774292,450.184021 
	C167.197693,449.625031 165.848679,446.731232 164.042892,444.498383 
	C163.023026,443.237274 163.750702,441.885101 165.576599,441.842957 
	C168.061905,441.785583 171.632431,447.196808 170.774292,450.184021 
z"/>
<path fill="#000000" opacity="1.000000" stroke="none" 
	d="
M153.399414,375.286743 
	C157.265213,375.615417 155.765030,377.797668 154.948486,379.370178 
	C153.965393,381.263489 154.103775,384.344849 151.079865,384.426208 
	C149.223816,384.476135 149.239456,382.679016 149.788284,381.457886 
	C150.720123,379.384491 151.960907,377.449982 153.399414,375.286743 
z"/>
<path fill="#000000" opacity="1.000000" stroke="none" 
	d="
M543.285889,379.181030 
	C540.826111,380.092346 538.881836,384.692169 536.746460,381.325287 
	C535.156189,378.817932 539.500610,377.658783 541.311584,376.027222 
	C542.119385,375.299469 543.310059,374.550079 544.368286,375.669312 
	C545.689697,377.066925 544.455505,378.006042 543.285889,379.181030 
z"/>
<path fill="#000000" opacity="1.000000" stroke="none" 
	d="
M146.757782,394.148560 
	C148.447433,391.061432 150.024414,391.054810 150.303711,394.296265 
	C150.514603,396.743408 151.026321,399.558319 149.024872,401.697662 
	C148.762863,401.977753 147.577515,401.898193 147.294266,401.572571 
	C145.419876,399.417786 146.671661,396.912292 146.757782,394.148560 
z"/>
<path fill="#000000" opacity="1.000000" stroke="none" 
	d="
M515.561646,397.414001 
	C514.844666,401.047150 511.695709,401.785614 509.298492,403.336182 
	C508.562531,403.812225 507.585846,403.525513 507.199738,402.693268 
	C506.968018,402.193848 506.969238,401.119720 507.277802,400.909912 
	C509.778870,399.209198 511.376831,395.467834 515.561646,397.414001 
z"/>
<path fill="#000000" opacity="1.000000" stroke="none" 
	d="
M498.408661,406.764038 
	C500.827637,406.775848 501.693817,407.991943 500.233978,409.479401 
	C498.324402,411.425140 496.202850,413.441711 493.185791,413.573547 
	C492.810822,413.589935 492.009094,412.648041 492.062653,412.235535 
	C492.415955,409.513794 495.129303,409.071259 496.802551,407.608582 
	C497.168060,407.289093 497.651520,407.104492 498.408661,406.764038 
z"/>
<path fill="#000000" opacity="1.000000" stroke="none" 
	d="
M565.106812,358.999969 
	C566.180603,356.682617 568.051392,355.564087 569.763306,354.303131 
	C570.803650,353.536774 572.115967,352.508392 573.169922,354.069061 
	C574.169006,355.548492 572.939941,356.702026 571.779175,357.225952 
	C569.653320,358.185486 568.510437,362.503601 565.106812,358.999969 
z"/>
<path fill="#000000" opacity="1.000000" stroke="none" 
	d="
M528.014282,386.058838 
	C530.545593,386.184448 530.997803,387.567902 529.631042,388.923523 
	C527.805481,390.734039 525.887939,392.725159 523.066101,392.956390 
	C522.681458,392.987976 521.840454,392.111023 521.862244,391.688232 
	C522.007690,388.862335 524.814819,388.456970 526.423950,386.944672 
	C526.776794,386.613098 527.261047,386.421387 528.014282,386.058838 
z"/>
<path fill="#000000" opacity="1.000000" stroke="none" 
	d="
M584.290405,347.238922 
	C582.669678,348.149384 581.706055,350.023315 579.727417,348.910553 
	C580.287903,344.761902 583.329773,342.361023 587.370911,342.886780 
	C587.911560,345.268036 585.709961,345.806366 584.290405,347.238922 
z"/>
<path fill="#000000" opacity="1.000000" stroke="none" 
	d="
M124.653839,604.692017 
	C122.702354,604.740173 121.112488,604.479370 121.318550,602.436218 
	C121.473442,600.900330 122.923393,600.483521 124.278069,600.299744 
	C125.471024,600.137878 126.750343,600.221924 127.210861,601.512695 
	C127.891296,603.419922 126.543877,604.150879 124.653839,604.692017 
z"/>
</svg>